<svg xmlns="http://www.w3.org/2000/svg" viewBox="0 0 312.49 108"><defs><style>.cls-1{fill:#3d3d3d;}.cls-2{fill:#ffef72;}.cls-3{fill:#ffad01;}.cls-4{fill:#4edd8e;}.cls-5{fill:#01caff;}.cls-6{fill:#ff5b92;}</style></defs><title>Fichier 3test05</title><g id="Calque_2" data-name="Calque 2"><g id="Calque_1-2" data-name="Calque 1"><path class="cls-1" d="M20.18,34.05C23,35.76,23.79,38,23.79,41.13c0,8.48-4.87,8.54-10.37,8.54H.45V18h13c5.5,0,10.37,0,10.37,8.48C23.79,29.94,23,32.34,20.18,34.05ZM13.35,20H2.66V32.91H13.35c3.54,0,8.23-.19,8.23-6.39S18.54,20,13.35,20Zm8.23,21.13c0-6.26-4.69-6.26-8.23-6.26H2.66V47.71H13.35C18.48,47.71,21.58,47.4,21.58,41.13Z"/><path class="cls-1" d="M29.49,40.88V35.19c0-8.1,2-11.14,10.12-11.14,8.6,0,9.87,3.29,9.87,9.74V38.1H31.7v3.22c0,5.38,3.8,6.65,8.67,6.65a38.44,38.44,0,0,0,8-.7,11.84,11.84,0,0,1,.44,2,43.07,43.07,0,0,1-8.35.76C34.1,50,29.49,47.78,29.49,40.88ZM31.7,36H47.26V32.4c0-3.86-.88-6.39-7.65-6.39S31.7,28.54,31.7,36Z"/><path class="cls-1" d="M65.42,47.65h1.46a7.64,7.64,0,0,1,.06,1.07,6.1,6.1,0,0,1-.06,1h-1.4c-5.31,0-7.08-1.52-7.08-7.15V26.33H53.34a6.25,6.25,0,0,1-.07-1.08,4.32,4.32,0,0,1,.07-.88H58.4V16.59a6.28,6.28,0,0,1,1-.07,6.91,6.91,0,0,1,1.2.07v7.78h6.27a5,5,0,0,1,.06.88,7.28,7.28,0,0,1-.06,1.08H60.61V42.52C60.61,46.38,60.87,47.59,65.42,47.65Z"/><path class="cls-1" d="M80.48,35.25c2.15,0,5.76.25,7.59,1h.25V33c0-5.25-2.72-7-9-7a20.69,20.69,0,0,0-6,.7,10.53,10.53,0,0,1-.51-1.84,28.57,28.57,0,0,1,7.09-.82c6.39,0,10.63,2,10.63,9V49.61a7,7,0,0,1-1.08.06,9.12,9.12,0,0,1-1.14-.06v-4c-3.22,4-6.07,4.43-9.17,4.43-6,0-8.6-1.9-8.6-7.59C70.55,36.89,75.61,35.25,80.48,35.25ZM79.09,48c4,0,7-2.09,9.23-4.62v-5.7a44.22,44.22,0,0,0-5.25-.25c-5.44,0-10.31,0-10.31,4.87C72.76,46,74.85,47.9,79.09,48Z"/><path class="cls-1" d="M4.84,78.47c0,4.77,3.27,6.33,7.81,6.33a35.52,35.52,0,0,0,8.94-1,7.37,7.37,0,0,1,1.11,4.1,40.55,40.55,0,0,1-10,1.19C5.06,89.12,0,86.36,0,78V69.69C0,61.35,5.06,58.6,12.73,58.6a40.55,40.55,0,0,1,10,1.19,7.34,7.34,0,0,1-1.11,4.09,36,36,0,0,0-8.94-1c-4.54,0-7.81,1.56-7.81,6.32Z"/><path class="cls-1" d="M52.55,70.58v6.55c0,6.7-.3,12-12,12s-12-5.29-12-12V70.58c0-6.7.3-12,12-12S52.55,63.88,52.55,70.58Zm-4.84.08c0-3.35,0-7.74-7.15-7.74s-7.14,4.39-7.14,7.74v6.4c0,3.35,0,7.74,7.14,7.74s7.15-4.39,7.15-7.74Z"/><path class="cls-1" d="M94.15,59.19l-5.65,29a7,7,0,0,1-3.43.6,7.44,7.44,0,0,1-3.57-.53l-5.29-19.8h-.74l-5.28,19.8a7.49,7.49,0,0,1-3.58.53,6.93,6.93,0,0,1-3.42-.6l-5.81-29A13.09,13.09,0,0,1,59.84,59a12.78,12.78,0,0,1,2.38.22l4.54,25.09L72.27,62a19,19,0,0,1,3.57-.37,18.46,18.46,0,0,1,3.58.37l5.5,22.26,4.4-25.09A12.7,12.7,0,0,1,91.7,59,12.91,12.91,0,0,1,94.15,59.19Z"/><path class="cls-1" d="M123,70.58v6.55c0,6.7-.3,12-12,12s-12-5.29-12-12V70.58c0-6.7.3-12,12-12S123,63.88,123,70.58Zm-4.84.08c0-3.35,0-7.74-7.15-7.74s-7.14,4.39-7.14,7.74v6.4c0,3.35,0,7.74,7.14,7.74s7.15-4.39,7.15-7.74Z"/><path class="cls-1" d="M143.2,62.92c-5.73,0-7.59,1.93-7.59,6.25V88.52a12.84,12.84,0,0,1-4.84,0V59.19A15.57,15.57,0,0,1,133,59a15.75,15.75,0,0,1,2.16.22l.45,2.09h.74c2.08-2.68,5.36-2.68,8.34-2.68H146a5.1,5.1,0,0,1,.38,2.08,16,16,0,0,1-.23,2.24Z"/><path class="cls-1" d="M178,87.85a4.27,4.27,0,0,1-2.53.9,9.69,9.69,0,0,1-2.6-.23l-8.56-16.67L156,78V88.52a18.68,18.68,0,0,1-2.38.23,18.44,18.44,0,0,1-2.46-.23V49.07a13.42,13.42,0,0,1,4.84,0v23l17.12-12.88A12.89,12.89,0,0,1,174.68,61,12.12,12.12,0,0,1,176,63.06l-7.67,5.81Z"/><path class="cls-2" d="M312.07,26.32l-6.84-11.84a3.9,3.9,0,0,0-3.05-1.76H288.51a3.9,3.9,0,0,0-3.05,1.76l-6.84,11.84a3.9,3.9,0,0,0,0,3.52l6.84,11.85a3.93,3.93,0,0,0,3.05,1.76h13.67a3.93,3.93,0,0,0,3.05-1.76l6.84-11.85A3.9,3.9,0,0,0,312.07,26.32Zm-10.81-8.26c2.2,0,2.89,2.89.27,3.17A1.61,1.61,0,1,1,301.26,18.06Zm-14.91,0a1.61,1.61,0,1,1,2.74,1.61C287.81,21.48,285.05,20.37,286.35,18.07Zm-1.25,5.37a32.71,32.71,0,0,0,19-.17C300.18,31.68,287.1,30.34,285.1,23.44Z"/><path class="cls-3" d="M228.71,66,219,49.16a3.9,3.9,0,0,0-3.05-1.76H196.5a3.9,3.9,0,0,0-3,1.76L183.74,66a3.9,3.9,0,0,0,0,3.52l9.72,16.84a3.93,3.93,0,0,0,3,1.76h19.44A3.93,3.93,0,0,0,219,86.35l4.36-7.56c-6.12,2.85-15.36,1.42-18.84-6.11a41.34,41.34,0,0,0,21.92.78l2.28-3.95A3.9,3.9,0,0,0,228.71,66Zm-22.46.08c-1.53-.84.5-4.56,2-3.16S208.11,67.08,206.25,66.07Zm8.88-.34c-2-.5-1.87-3.74.25-3.74C217.12,62,217.12,66.23,215.13,65.73Z"/><path class="cls-4" d="M276.59,39.35,265,19.19a3.92,3.92,0,0,0-3.05-1.75H238.63a3.92,3.92,0,0,0-3,1.75L223.94,39.35a3.9,3.9,0,0,0,0,3.52L235.58,63a3.9,3.9,0,0,0,3,1.76H261.9A3.9,3.9,0,0,0,265,63l11.64-20.16A3.9,3.9,0,0,0,276.59,39.35Zm-15.23-7.23c-1.09,7.77-9.94,8-10.49.14C254,35.25,257.68,35.66,261.36,32.12Zm-15.6,0c-1.09,7.77-9.94,8-10.49.14C238.41,35.25,242.08,35.66,245.76,32.12ZM230.13,40.9c10.1,2.23,25,3.09,37.18.05C259.7,50.41,240.81,54,230.13,40.9Z"/><path class="cls-5" d="M266.76,88.19l-8.39-14.53a3.87,3.87,0,0,0-3-1.76H238.55a3.9,3.9,0,0,0-3.05,1.76l-8.39,14.53a4,4,0,0,0,0,3.52l1.64,2.83a43.89,43.89,0,0,0,20-.93c-1.75,6-10.07,8.73-16.78,6.45l3.56,6.18a3.9,3.9,0,0,0,3.05,1.76h16.78a3.87,3.87,0,0,0,3-1.76l8.39-14.53A3.9,3.9,0,0,0,266.76,88.19Zm-32.61,1.18c-1.64-1.43-.32-3.43,1.68-2.41C237.47,87.79,235.79,90.79,234.15,89.37Zm8.71,1.38c-1.64-1.42-.32-3.43,1.68-2.41C246.18,89.18,244.5,92.18,242.86,90.75Z"/><path class="cls-6" d="M220.93,14.43,213.61,1.76A3.9,3.9,0,0,0,210.56,0H195.93a3.9,3.9,0,0,0-3.05,1.76l-7.32,12.67a3.9,3.9,0,0,0,0,3.52l7.32,12.68a3.93,3.93,0,0,0,3.05,1.76h14.63a3.93,3.93,0,0,0,3.05-1.76L220.93,18A3.9,3.9,0,0,0,220.93,14.43ZM204.45,13c2.19-.38,1.94,3.09.27,3.17S201.18,13.53,204.45,13Zm-4.88,1c2.2-.38,1.94,3.09.28,3.17S196.3,14.55,199.57,14ZM192,21.23l22.23-3.41C209.55,24.7,197.36,30.29,192,21.23Z"/></g></g></svg>