<svg xmlns="http://www.w3.org/2000/svg" xmlns:xlink="http://www.w3.org/1999/xlink" viewBox="0 0 409.79 135.15"><defs><clipPath id="clip-path" transform="translate(0 0)"><rect width="409.79" height="135.15" fill="none"/></clipPath></defs><title>devday-</title><g id="Layer_2" data-name="Layer 2"><g id="Layer_1-2" data-name="Layer 1"><g clip-path="url(#clip-path)"><path d="M149.77,93.78a5.62,5.62,0,0,1-5.48-5.63V62.81A4.72,4.72,0,0,1,146,59a5.76,5.76,0,0,1,3.8-1.41h21.07v7.24h-19V86.54h22.76V46.32h7.59V88.15a5.64,5.64,0,0,1-5.48,5.63Z" transform="translate(0 0)" fill="#2699d6"/><path d="M227.73,93.78H195.28a5.64,5.64,0,0,1-5.48-5.63V62.81A4.7,4.7,0,0,1,191.49,59a5.73,5.73,0,0,1,3.79-1.41h27a5.8,5.8,0,0,1,3.8,1.41,4.72,4.72,0,0,1,1.68,3.82V73.67a5.33,5.33,0,0,1-1.68,4,5.41,5.41,0,0,1-3.8,1.61H205V72.06h15.18V64.82H197.39V86.54h30.34Z" transform="translate(0 0)" fill="#2699d6"/><path d="M256,93.78a8.24,8.24,0,0,1-5.9-2.41L237.85,79.3a7.53,7.53,0,0,1-2.53-5.63V57.58h7.58V73.67c0,.27.14.4.42.4l12.23,12.07a1.28,1.28,0,0,1,.84.4h9.27v-29h7.59V88.15a5.64,5.64,0,0,1-5.48,5.63Z" transform="translate(0 0)" fill="#2699d6"/><path d="M286.31,93.78a5.64,5.64,0,0,1-5.48-5.63V62.81A4.7,4.7,0,0,1,282.52,59a5.73,5.73,0,0,1,3.79-1.41h21.07v7.24h-19V86.54h22.76V46.32h7.58V88.15a5.62,5.62,0,0,1-5.48,5.63Z" transform="translate(0 0)" fill="#6abfa9"/><path d="M331.83,93.78a5.62,5.62,0,0,1-5.48-5.63V77.29A4.72,4.72,0,0,1,328,73.47a5.76,5.76,0,0,1,3.8-1.41H352.9V79.3h-19v7.24h22.76V64.82H326.35V57.58H358.8A5.77,5.77,0,0,1,362.59,59a4.73,4.73,0,0,1,1.69,3.82V88.15a5.64,5.64,0,0,1-5.48,5.63Z" transform="translate(0 0)" fill="#6abfa9"/><path d="M398.41,93.78H377.34a5.64,5.64,0,0,1-5.48-5.63V57.58h7.59v29h19Zm11.38,21h-7.58V57.58h7.58Z" transform="translate(0 0)" fill="#6abfa9"/><path d="M12.07,104.53A11.74,11.74,0,0,1,3.71,101,11.69,11.69,0,0,1,0,92.13V36.32a10.37,10.37,0,0,1,3.71-8.41,12.65,12.65,0,0,1,8.36-3.1H58.48V40.75H16.71V88.59H66.83V0H83.54V92.13a12.4,12.4,0,0,1-12.07,12.4Z" transform="translate(0 0)" fill="#2699d6"/><path d="M48.14,135.15a12.38,12.38,0,0,1-12.07-12.4V66.94a10.4,10.4,0,0,1,3.71-8.42,12.71,12.71,0,0,1,8.36-3.1H94.62v16H52.78v47.84H102.9V30.62h16.7v92.13a12.38,12.38,0,0,1-12.06,12.4Z" transform="translate(0 0)" fill="#6abfa9"/><path d="M236.08,101.22h1.66c3.17,0,4.72,1,4.72,3.23V105H241v-.15c0-1.89-1-2.3-3.31-2.3H236.5a4.46,4.46,0,0,0-2.94.61c-.65.54-.68,1.36-.68,2.7v3.56c0,1.34,0,2.17.68,2.7a4.4,4.4,0,0,0,2.94.62h1.15a4,4,0,0,0,2.66-.55c.6-.48.65-1.26.65-2.48v-.77h-3.63v-1.27h5.13v2.09c0,3.22-1.23,4.28-4.72,4.28h-1.66c-3.49,0-4.71-1.06-4.71-4.28V105.5c0-3.21,1.22-4.28,4.71-4.28" transform="translate(0 0)" fill="#2699d6"/><polygon points="248.68 101.37 257.87 101.37 257.87 102.7 250.13 102.7 250.13 106.79 257.65 106.79 257.65 108.06 250.13 108.06 250.13 112.56 257.87 112.56 257.87 113.87 248.68 113.87 248.68 101.37" fill="#2699d6"/><polygon points="262.01 101.37 271.8 101.37 271.8 102.7 267.62 102.7 267.62 113.87 266.17 113.87 266.17 102.7 262.01 102.7 262.01 101.37" fill="#2699d6"/><rect x="286.47" y="101.37" width="1.46" height="12.49" fill="#2699d6"/><polygon points="294.7 101.37 296.93 101.37 304.02 112.53 304.02 101.37 305.46 101.37 305.46 113.87 303.23 113.87 296.14 102.7 296.14 113.87 294.7 113.87 294.7 101.37" fill="#2699d6"/><path d="M313.35,109.8V110c0,1.3.14,2.06.75,2.39s1.79.3,3.7.3c1.35,0,2.21-.13,2.64-.58.24-.24.33-.79.33-1.67,0-1.54-.08-2.06-1.46-2.16l-4-.31c-2.32-.17-3.2-.93-3.2-3.32a3.38,3.38,0,0,1,1-2.85c.69-.59,1.87-.62,3.62-.62h.47c1.91,0,3.24,0,4.21.82a2.78,2.78,0,0,1,.74,2.26c0,.19,0,.39,0,.6H320.6v-.31c0-.81-.07-1.32-.36-1.6-.45-.43-1.62-.46-3.62-.46-2.34,0-3.06.17-3.06,2.18,0,1.44.36,1.85,1.64,2l4.13.32c2.21.19,2.91,1.07,2.91,3.25a3.93,3.93,0,0,1-.72,2.87c-.83.9-2.16.93-4.21.93h-.65c-1.71,0-2.93,0-3.82-.79a3.47,3.47,0,0,1-.95-2.84c0-.2,0-.41,0-.61Z" transform="translate(0 0)" fill="#2699d6"/><path d="M328.69,101.37h5.51c2.8,0,3.87.62,3.87,2.86v1.89c0,2.28-1.05,2.9-3.87,2.9h-4.08v4.85h-1.43Zm7.86,2.91c0-1.41-.7-1.58-2.37-1.58h-4.06v5h4.06c1.6,0,2.37-.17,2.37-1.58Z" transform="translate(0 0)" fill="#2699d6"/><rect x="344.08" y="101.37" width="1.46" height="12.49" fill="#2699d6"/><path d="M352.3,101.37h5.91c2.81,0,3.87.62,3.87,2.86v1.89a2,2,0,0,1-1.69,2.23c1.3.29,1.69,1,1.69,2.51v3h-1.51v-2.58c0-1.82-.49-2.29-2.18-2.29h-4.65v4.87H352.3Zm1.44,1.33v5h4.18c1.8,0,2.65-.19,2.65-1.77v-1.46c0-1.6-.79-1.77-2.65-1.77Z" transform="translate(0 0)" fill="#2699d6"/><polygon points="368.49 101.37 377.67 101.37 377.67 102.7 369.93 102.7 369.93 106.79 377.45 106.79 377.45 108.06 369.93 108.06 369.93 112.56 377.67 112.56 377.67 113.87 368.49 113.87 368.49 101.37" fill="#2699d6"/><path d="M383.59,101.37h6.32c3.3,0,4.45,1.1,4.45,4.18v4.13c0,3.07-1.15,4.19-4.45,4.19h-6.32Zm6.09,11.26c2.43,0,3.17-.57,3.17-2.94v-4c0-2.44-.67-3-3.17-3H385v10Z" transform="translate(0 0)" fill="#2699d6"/><polygon points="66.83 88.59 66.83 0 83.53 0 83.53 92.13 66.83 88.59" fill="#2699d6"/></g></g></g></svg>